<?xml version="1.0" encoding="UTF-8" standalone="no"?>
<!-- Created with Inkscape (http://www.inkscape.org/) -->

<svg
   version="1.1"
   width="1484.791"
   height="1264.564"
   id="svg2"
   sodipodi:docname="jerez.svg"
   inkscape:version="1.4.2 (f4327f4, 2025-05-13)"
   xmlns:inkscape="http://www.inkscape.org/namespaces/inkscape"
   xmlns:sodipodi="http://sodipodi.sourceforge.net/DTD/sodipodi-0.dtd"
   xmlns="http://www.w3.org/2000/svg"
   xmlns:svg="http://www.w3.org/2000/svg"
   xmlns:rdf="http://www.w3.org/1999/02/22-rdf-syntax-ns#"
   xmlns:cc="http://creativecommons.org/ns#"
   xmlns:dc="http://purl.org/dc/elements/1.1/">
  <sodipodi:namedview
     id="namedview108"
     pagecolor="#ffffff"
     bordercolor="#666666"
     borderopacity="1.0"
     inkscape:pageshadow="2"
     inkscape:pageopacity="0.0"
     inkscape:pagecheckerboard="0"
     showgrid="false"
     fit-margin-top="5"
     fit-margin-left="5"
     fit-margin-right="5"
     fit-margin-bottom="5"
     inkscape:zoom="0.317025"
     inkscape:cx="208.18547"
     inkscape:cy="925.7945"
     inkscape:window-width="1920"
     inkscape:window-height="1017"
     inkscape:window-x="-8"
     inkscape:window-y="-8"
     inkscape:window-maximized="1"
     inkscape:current-layer="svg2"
     inkscape:showpageshadow="2"
     inkscape:deskcolor="#d1d1d1" />
  <defs
     id="defs4" />
  <metadata
     id="metadata7">
    <rdf:RDF>
      <cc:Work
         rdf:about="">
        <dc:format>image/svg+xml</dc:format>
        <dc:type
           rdf:resource="http://purl.org/dc/dcmitype/StillImage" />
      </cc:Work>
    </rdf:RDF>
  </metadata>
  <path
     d="M 905.23581,730.45588 C 882.2793,676.57739 844.99296,626.15957 815.85028,573.77656 739.38392,444.75149 651.88393,308.79083 577.13052,179.35044 562.39256,143.77287 730.4504,74.937022 771.98115,80.643552 c 71.47533,0.26203 68.69965,-3.80983 139.93447,-2.0195 18.55918,2.3439 33.64258,33.675828 35.14183,44.145998 1.67435,11.69276 -4.46154,17.87525 -17.10006,25.38315 -21.02601,12.49051 -42.65866,22.83524 -53.34589,29.63147 -23.8113,13.05921 -38.40802,24.20975 -38.92878,80.57358 4.20758,48.86412 -4.14518,101.17443 29.12602,146.17569 30.51139,45.692 104.72351,55.20461 168.70896,59.76365 109.7529,10.56949 218.7029,-17.56811 325.2477,-4.41061 95.1632,22.99303 102.9995,127.93191 21.3088,164.50404 L 612.13399,1211.3241 c -18.77049,8.2674 -34.86648,9.09 -46.95856,5.438 -12.09197,-3.6522 -21.01666,-12.3643 -22.4184,-22.141 -1.97003,-13.7404 10.36646,-29.6923 20.8433,-44.9943 26.55063,-38.9436 116.09563,-159.27113 150.3948,-207.30423 8.40344,-14.08289 14.48354,-27.36118 10.51556,-49.27009 C 719.54404,865.62935 696.1332,842.46962 688.9583,837.02975 640.21382,790.95731 588.27567,746.53309 536.39825,701.70798 479.08974,668.09279 393.49647,683.28562 351.96199,723.92991 c -36.52228,34.455 -45.9781,78.65238 -68.84399,117.96441 -18.33065,30.04943 -23.35202,65.90714 -56.07417,90.10424 -36.61431,18.58682 -75.98579,-0.33638 -104.26121,-17.72743 C 97.113371,896.79 48.178382,887.21265 52.778374,856.86019 66.884453,818.90058 99.683177,785.64713 122.11631,749.79004 c 31.81682,-42.99714 58.95568,-87.93342 93.94074,-129.61764 4.14718,-5.65864 61.50872,-94.03443 84.73325,-101.37524 26.09163,-8.24703 47.93899,-8.51154 60.69018,-8.44323 23.27172,0.79642 136.99171,11.77791 181.88729,17.90844 6.23944,0.85201 10.46094,1.45407 15.68759,3.25303 5.22666,1.79896 10.86178,4.59739 14.64118,7.20673 26.30418,18.16056 46.43764,41.22226 71.30982,60.52351 63.91322,54.61841 125.84417,110.47753 191.03451,164.29651 32.48665,16.41311 80.57251,-4.26029 69.19494,-33.08627 z"
     id="path3164"
     style="fill:none;stroke:#000000;stroke-width:17.6125;stroke-linecap:butt;stroke-linejoin:miter;stroke-miterlimit:4;stroke-dasharray:none;stroke-opacity:1"
     sodipodi:nodetypes="cccccsscccccccssccscccccccccscsssccc" />
</svg>
