<?xml version="1.0" encoding="UTF-8" standalone="no"?>
<svg
   sodipodi:docname="portimao.svg"
   inkscape:version="1.4.2 (f4327f4, 2025-05-13)"
   version="1.1"
   id="svg3004"
   height="1249.281"
   width="1447"
   xmlns:inkscape="http://www.inkscape.org/namespaces/inkscape"
   xmlns:sodipodi="http://sodipodi.sourceforge.net/DTD/sodipodi-0.dtd"
   xmlns:xlink="http://www.w3.org/1999/xlink"
   xmlns="http://www.w3.org/2000/svg"
   xmlns:svg="http://www.w3.org/2000/svg"
   xmlns:rdf="http://www.w3.org/1999/02/22-rdf-syntax-ns#"
   xmlns:cc="http://creativecommons.org/ns#"
   xmlns:dc="http://purl.org/dc/elements/1.1/">
  <defs
     id="defs3006">
    <pattern
       patternTransform="matrix(9.7433763,0,0,10.862037,-692.45465,-355.09264)"
       id="pattern5255"
       xlink:href="#pattern5250"
       inkscape:collect="always" />
    <pattern
       patternTransform="matrix(9.7433763,0,0,10.862037,3.9515972,178.40736)"
       id="pattern5250"
       xlink:href="#Checkerboard"
       inkscape:collect="always" />
    <pattern
       inkscape:collect="always"
       patternUnits="userSpaceOnUse"
       width="2"
       height="2"
       patternTransform="translate(0,0) scale(10,10)"
       id="Checkerboard"
       inkscape:stockid="Checkerboard">
      <rect
         style="fill:black;stroke:none"
         x="0"
         y="0"
         width="1"
         height="1"
         id="rect4563" />
      <rect
         style="fill:black;stroke:none"
         x="1"
         y="1"
         width="1"
         height="1"
         id="rect4565" />
    </pattern>
    <pattern
       id="pattern5252"
       patternTransform="translate(696.40625,533.5)"
       height="77.09375"
       width="23.0625"
       patternUnits="userSpaceOnUse">
      <rect
         style="fill:url(#pattern5255);fill-opacity:1;stroke:#000000;stroke-width:1.02875137;stroke-opacity:1"
         id="rect5248"
         width="22.024645"
         height="76.055908"
         x="0.52008057"
         y="0.51818848"
         ry="0" />
    </pattern>
  </defs>
  <sodipodi:namedview
     inkscape:document-rotation="0"
     inkscape:window-maximized="1"
     inkscape:window-y="-8"
     inkscape:window-x="-8"
     inkscape:window-height="1017"
     inkscape:window-width="1920"
     fit-margin-bottom="0"
     fit-margin-right="0"
     fit-margin-left="0"
     fit-margin-top="0"
     width="1052.36px"
     showgrid="false"
     id="namedview3008"
     inkscape:current-layer="layer1"
     inkscape:cy="307.4011"
     inkscape:cx="1184.0635"
     inkscape:zoom="0.30741595"
     inkscape:pageshadow="2"
     inkscape:pageopacity="0.0"
     borderopacity="1.0"
     bordercolor="#666666"
     pagecolor="#ffffff"
     inkscape:document-units="mm"
     inkscape:showpageshadow="2"
     inkscape:pagecheckerboard="0"
     inkscape:deskcolor="#d1d1d1" />
  <metadata
     id="metadata3010">
    <rdf:RDF>
      <cc:Work
         rdf:about="">
        <dc:format>image/svg+xml</dc:format>
        <dc:type
           rdf:resource="http://purl.org/dc/dcmitype/StillImage" />
        <cc:license
           rdf:resource="http://creativecommons.org/licenses/by-sa/4.0/" />
      </cc:Work>
      <cc:License
         rdf:about="http://creativecommons.org/licenses/by-sa/4.0/">
        <cc:permits
           rdf:resource="http://creativecommons.org/ns#Reproduction" />
        <cc:permits
           rdf:resource="http://creativecommons.org/ns#Distribution" />
        <cc:requires
           rdf:resource="http://creativecommons.org/ns#Notice" />
        <cc:requires
           rdf:resource="http://creativecommons.org/ns#Attribution" />
        <cc:permits
           rdf:resource="http://creativecommons.org/ns#DerivativeWorks" />
        <cc:requires
           rdf:resource="http://creativecommons.org/ns#ShareAlike" />
      </cc:License>
    </rdf:RDF>
  </metadata>
  <g
     transform="translate(28.649292,-99.655434)"
     id="layer1"
     inkscape:groupmode="layer"
     inkscape:label="Layer 1">
    <path
       id="path3031"
       style="fill:none;stroke:#000000;stroke-width:21.379;stroke-linecap:butt;stroke-linejoin:miter;stroke-miterlimit:4;stroke-dasharray:none;stroke-opacity:1"
       d="m 151.22112,1084.6944 c 0,0 -24.51594,-1.2487 -32.15288,-5.8381 -7.63705,-4.5895 -10.95624,-9.1862 -13.45931,-15.5681 -1.76432,-4.4985 -3.64803,-10.5159 -3.64803,-10.5159 L 56.295542,880.0576 54.762489,874.52478 c -1.782589,-8.88963 -1.294446,-18.49771 0,-27.24418 1.294402,-8.74648 7.477405,-24.32521 7.477405,-24.32521 m -7.477188,24.3233 c 1.294402,-8.7465 7.477405,-24.3252 7.477405,-24.3252 L 127.29351,677.97541 c 0,0 9.25626,-14.52868 14.20717,-16.54112 4.95078,-2.01245 8.35018,-4.1426 12.49254,-2.87015 4.14236,1.27245 9.25096,6.19607 12.18293,10.65421 2.93186,4.45811 5.23414,14.5951 5.23414,14.5951 l 23.92772,118.70686 c 0,0 7.65225,17.93729 12.71156,25.29822 5.05942,7.36093 11.91563,14.4535 17.19806,18.48716 5.28245,4.03364 6.26191,4.32063 13.45931,6.81104 7.19751,2.49042 29.90974,5.83801 29.90974,5.83801 l 88.9811,4.86506 116.64769,6.81104 97.20627,5.83802 h 112.16119 l 94.21538,-3.89198 60.56699,0.97297 c 0,0 10.47427,-2.08545 14.20717,-6.81104 3.73279,-4.72559 5.78915,-12.74044 5.9819,-19.46012 0.19274,-6.71969 -1.68911,-13.40943 -4.4864,-18.48716 -2.79739,-5.07769 -11.21617,-10.70307 -11.21617,-10.70307 L 636.50524,713.97668 c 0,0 -15.57492,-4.32152 -25.42321,-4.6981 -9.84829,-0.37659 -18.99365,1.17384 -33.64838,2.75208 -14.65453,1.57823 -53.83723,11.67608 -53.83723,11.67608 L 397.9758,748.03193 c 0,0 -12.22556,-0.22753 -20.9367,-3.89205 -8.71115,-3.6645 -16.12463,-6.37971 -29.90962,-20.43314 -13.78511,-14.05343 -60.5671,-124.54495 -60.5671,-124.54495 0,0 -4.17601,-13.1459 -1.4954,-31.13621 2.68051,-17.99032 5.74456,-19.12229 12.71156,-27.93224 6.967,-8.80997 26.91872,-9.04205 26.91872,-9.04205 0,0 82.54991,15.19053 132.35015,28.21721 49.80014,13.02667 165.99852,51.56939 165.99852,51.56939 0,0 20.87681,4.70377 31.40513,4.86504 10.52832,0.16128 21.52938,-0.20643 31.40513,-3.89203 9.87574,-3.6856 16.8792,-8.94876 26.91871,-17.51413 10.03942,-8.56535 32.15288,-35.02827 32.15288,-35.02827 0,0 109.68015,-156.14387 116.64759,-162.49221 6.96744,-6.34834 9.51673,-13.07136 25.24166,-19.86316 15.72502,-6.79185 22.53065,-6.73887 33.82983,-8.35405 11.29919,-1.61518 27.40362,-0.57345 36.63928,0.97301 9.23576,1.54646 12.93599,1.02368 18.69357,5.83803 5.75768,4.81437 10.77185,13.75854 13.45942,22.37918 2.68745,8.62064 2.24314,27.24421 2.24314,27.24421 l -0.74765,215.03461 c 0,0 -0.15866,18.42291 2.99097,31.13624 3.14935,12.7133 5.27387,28.90458 17.19791,47.67736 11.9241,18.77275 18.68,22.00323 26.9188,29.19021 8.2386,7.18698 143.222,84.44064 150.2959,86.59764 7.0739,2.15701 15.5407,2.89451 21.6846,0 6.1438,-2.8945 11.8306,-6.95638 15.5742,-13.21908 3.7435,-6.26268 4.9478,-15.02277 6.1103,-23.7552 1.1623,-8.73241 0.3534,-21.41189 -2.2433,-28.21719 -2.5966,-6.80533 -96.4586,-182.9254 -96.4586,-182.9254 0,0 -6.3735,-25.02074 -4.4865,-37.94727 1.8869,-12.92654 6.5031,-26.60158 13.5876,-35.02825 7.0847,-8.42671 17.3244,-14.81049 27.1001,-18.72325 10.4452,-4.18074 21.6809,-5.44445 32.5911,-4.62895 11.2279,0.83927 23.1383,3.11877 32.9005,9.73008 9.7624,6.61128 17.7834,19.27007 23.9276,28.21721 6.1443,8.94712 13.4594,24.32518 13.4594,24.32518 l 100.1973,195.57448 c 0,0 12.6245,34.41301 16.4501,51.56939 3.8259,17.15637 6.0939,32.13141 6.7298,50.59638 0.6361,18.465 -1.1321,41.11992 -3.7388,59.35344 -2.6064,18.23354 -5.3344,32.36016 -11.2158,49.6233 -5.8816,17.26322 -15.501,36.61392 -24.6757,52.54236 -9.1746,15.9287 -14.219,27.4913 -29.9095,42.8124 -15.6905,15.321 -37.1097,33.3775 -65.8012,41.8394 -28.6918,8.4616 -21.6657,3.8951 -52.3418,4.865 -30.6765,0.9698 -131.6027,-3.892 -131.6027,-3.892 l -924.95567,-12.6492 c 0,0 -24.51584,-1.2486 -32.15288,-5.8379 -7.63694,-4.5895 -10.95624,-9.1863 -13.45931,-15.5683" />
  </g>
</svg>
